<svg xmlns="http://www.w3.org/2000/svg" xmlns:xlink="http://www.w3.org/1999/xlink" id="Layer_2" x="0" y="0" version="1.1" viewBox="0 0 512 512" style="enable-background:new 0 0 512 512" xml:space="preserve"><g><g><g><path style="fill:#4b4d52" d="M256.214,260.901l-0.286,170.166V512L68.184,483.967c-18.896,0-33.711-15.295-31.979-33.065 c3.551-36.353,38.398-130.864,52.835-146.417c5.972-6.537,26.036-14.053,47.905-21.04c7.566-2.407,15.342-4.81,22.838-7.061 c22.497-6.767,42.489-12.474,46.515-15.484H256.214z"/><path style="fill:#18191a" d="M443.809,483.967L255.928,512v-80.934l0.286-170.166h49.917 c9.301,6.989,102.882,28.026,117.258,43.585c14.438,15.552,48.856,110.063,52.406,146.417 C477.527,468.672,462.708,483.967,443.809,483.967z"/></g><path style="fill:#c09556" d="M256.247,234.614h46.297c0,0-5.758,18.707,3.601,25.187c0,0-20.631,42.453-49.899,42.453V234.614z"/><path style="fill:#d7ab6d" d="M256.247,302.254c-29.263,0-49.894-42.453-49.894-42.453c9.355-6.48,3.601-25.187,3.601-25.187 h46.293V302.254z"/><path style="fill:#381b00" d="M171.782,97.684l9.097,75.212c0,0-4.897-89.624,19.574-94.013c0,0,105.579-13.163,120.26,0 c14.688,13.163,11.189,87.744,11.189,87.744l15.382-77.093l-69.215-38.854l-90.902,11.279L171.782,97.684z"/><g><path style="fill:#d7b27d" d="M190.884,148.715l-8.814,20.689c-0.418-0.069-0.831-0.141-1.253-0.349 c-9.508-2.915-10.343-20.064-11.936-26.098c-0.142-0.425-0.215-0.839-0.349-1.325c-1.532-6.32-1.874-15.69,7.634-16.801 c1.667-0.204,3.268,0.352,4.65,1.39c3.958,2.915,6.738,9.998,8.331,15.411C190.328,145.593,190.884,148.715,190.884,148.715z"/><path style="fill:#cfa569" d="M343.962,141.632c-0.135,0.486-0.204,0.9-0.345,1.325c-1.597,6.033-2.429,23.182-11.94,26.098 c-0.417,0.207-0.831,0.28-1.248,0.349l-8.818-20.689c0,0,0.559-3.122,1.739-7.082c1.594-5.413,4.375-12.496,8.328-15.411 c1.387-1.038,2.984-1.594,4.65-1.39C345.838,125.942,345.493,135.312,343.962,141.632z"/></g><g><path style="fill:#e4bd85" d="M256.214,60.132v200.631c0,0-27.768,2.501-48.184-16.797 c-20.409-19.302-27.213-29.02-27.213-48.805v-68.939c0-17.632,0-31.515,0-31.515s-0.203-1.045-0.069-2.781 C181.304,83.733,188.801,60.132,256.214,60.132z"/><path style="fill:#d7ab6d" d="M331.677,94.707c0,0,0,13.882,0,31.515v68.939c0,19.785-6.799,29.503-27.212,48.805 c-20.413,19.299-48.25,16.797-48.25,16.797V60.132c67.476,0,74.98,23.601,75.532,31.794 C331.884,93.661,331.677,94.707,331.677,94.707z"/></g><g><path style="fill:#381b00" d="M177.401,123.771c0,0,3.387,12.253,3.387,20.34l1.031-20.34l-1.031-14.623L177.401,123.771z"/><path style="fill:#381b00" d="M335.38,123.771c0,0-3.387,12.253-3.387,20.34l-1.03-20.34l1.03-14.623L335.38,123.771z"/></g><path style="fill:#4b4d52" d="M180.701,121.567c0,0,35.639-10.256,50.599-8.538c14.96,1.714,25.056,8.538,25.056,8.538v33.239 c0,0-13.523,4.436-21.4,5.696c-7.885,1.253-30.491-6.012-26.727-4.639c0,0-17.828-6.305-27.528-4.001V121.567z"/><path style="fill:#18191a" d="M331.833,121.567c0,0-35.642-10.256-50.602-8.538c-14.96,1.714-25.052,8.538-25.052,8.538v33.239 c0,0,13.515,4.436,21.404,5.696c7.877,1.253,30.483-6.012,26.726-4.639c0,0,17.828-6.305,27.524-4.001V121.567z"/><g><path style="fill:#f2f2f2" d="M197.672,135.903c-1.714,0,11.966-14.815,29.064-5.129c17.095,9.689,11.969,7.983,11.969,7.983 s-21.658,13.105-31.351,5.126C197.672,135.903,197.672,135.903,197.672,135.903z"/><path style="fill:#d5d5d5" d="M314.825,135.903c1.71,0-11.965-14.815-29.063-5.129c-17.099,9.689-11.969,7.983-11.969,7.983 s21.658,13.105,31.347,5.126C314.825,135.903,314.825,135.903,314.825,135.903z"/></g><path style="fill:#18191a" d="M256.033,0c48.998,0,88.772,29.115,88.772,64.982c0,2.229-0.164,4.375-0.48,6.523h-88.256 L256.033,0z"/><path style="fill:#4b4d52" d="M256.069,71.506h-88.244c-0.32-2.149-0.48-4.294-0.48-6.523C167.345,29.115,207.115,0,256.033,0 L256.069,71.506z"/><rect x="165.069" y="71.524" style="fill:#18191a" width="91" height="28.102"/><rect x="256.069" y="71.524" style="fill:#4b4d52" width="91.003" height="28.102"/></g><g><g><path style="fill:#c4c4c4" d="M256,294.652h122.979c15.963,0,29.017,15.969,29.017,35.489l0.225,132.679 c0,15.981-13.076,29.06-29.064,29.06H256V294.652z"/><path style="fill:#f2f2f2" d="M256,491.881H132.84c-15.992,0-29.064-13.079-29.064-29.06l0.225-132.679 c0-19.52,13.058-35.489,29.02-35.489H256V491.881z"/></g><path style="fill:#b3b3b3" d="M256.356,491.474H399.65c5.645,0,10.259,4.618,10.259,10.263l0,0 c0,5.642-4.614,10.263-10.259,10.263H256.356V491.474z"/><path style="fill:#bdbdbd" d="M256.356,512H113.061c-5.641,0-10.262-4.621-10.262-10.263l0,0c0-5.645,4.621-10.263,10.262-10.263 h143.295V512z"/><g><path style="fill:#e6e6e6" d="M256,361.692c17.436,0,31.569,14.137,31.569,31.573c0,17.436-14.133,31.572-31.569,31.572V361.692 z"/><path style="fill:#c4c4c4" d="M256,424.837c-17.436,0-31.576-14.136-31.576-31.572c0-17.436,14.139-31.573,31.576-31.573 V424.837z"/></g></g></g></svg>