<svg id="Layer_1" data-name="Layer 1" xmlns="http://www.w3.org/2000/svg" viewBox="0 0 120 120"><defs><style>.cls-1{fill:#555;}.cls-2{fill:#f2f2f2;}</style></defs><title>logo</title><circle class="cls-1" cx="60" cy="60" r="60"/><path class="cls-2" d="M20.44,29.66H31.88V87.82H20.44ZM34.9,61.42a26.39,26.39,0,0,1,1-2.76A11.4,11.4,0,0,1,37.54,56a8.56,8.56,0,0,1,2.28-2,5.88,5.88,0,0,1,3.09-.8H57.08V29.66h11.2V87.82H57.08V61.42Z"/><path class="cls-2" d="M87.4,46.46a6.92,6.92,0,0,1,1.4,2.2,13.5,13.5,0,0,1,1.08,3.72L90,54.3l.8-1.92a12.72,12.72,0,0,1,4.2-5,9.18,9.18,0,0,1,5.16-1.76,16.61,16.61,0,0,1,5.2,1l-1.28,9a20.37,20.37,0,0,0-2.68-.64,13.5,13.5,0,0,0-2-.16,6.63,6.63,0,0,0-3.68,1A8.93,8.93,0,0,0,93,58.74a14.39,14.39,0,0,0-1.72,4.32,23.66,23.66,0,0,0-.6,5.48V87.82H80.2V56.54a42.45,42.45,0,0,0-.28-4.76,39.09,39.09,0,0,0-1-5.32Z"/></svg>