<svg xmlns="http://www.w3.org/2000/svg" id="Layer_1" data-name="Layer 1" viewBox="0 0 1600 864"><defs><style>.cls-1{fill:#aaa}.cls-2{fill:#fff}.cls-3{fill:#e7e7e7}.cls-4{fill:#ff3336}.cls-5{fill:#f2ff21}.cls-6{fill:#00d511}.cls-7{fill:#eee}.cls-8{fill:#626262}</style></defs><title>parallax2</title><rect width="1600" height="864" class="cls-1"/><rect width="1160" height="652.5" x="220" y="105.75" class="cls-2" rx="5" ry="5"/><rect width="1160" height="76.47" x="220" y="105.75" class="cls-3" rx="5" ry="5"/><circle cx="1363.79" cy="121.81" r="9.62" class="cls-4"/><circle cx="1338.22" cy="121.81" r="9.62" class="cls-5"/><circle cx="1312.06" cy="121.81" r="9.62" class="cls-6"/><rect width="541.11" height="24.47" x="230.78" y="116.19" class="cls-2" rx="12" ry="12"/><rect width="1142.63" height="24.47" x="230.78" y="148.64" class="cls-2" rx="12" ry="12"/><path d="M259.1,122.86v12.81h-1.66V122.86Z"/><path d="M262,123a19.73,19.73,0,0,1,3.18-.24,5.29,5.29,0,0,1,3.59,1.06,3.46,3.46,0,0,1,1.12,2.68,3.73,3.73,0,0,1-1,2.73,5.3,5.3,0,0,1-3.91,1.41,6,6,0,0,1-1.33-.11v5.13H262Zm1.66,6.18a5.78,5.78,0,0,0,1.37.13c2,0,3.21-1,3.21-2.74s-1.2-2.5-3-2.5a6.69,6.69,0,0,0-1.56.13Z"/><path d="M275.89,133.65a5.84,5.84,0,0,0,3,.84c1.69,0,2.67-.9,2.67-2.19s-.68-1.88-2.41-2.54c-2.09-.74-3.38-1.83-3.38-3.63,0-2,1.65-3.48,4.14-3.48a5.85,5.85,0,0,1,2.83.63l-.45,1.35a5.1,5.1,0,0,0-2.43-.61c-1.75,0-2.42,1-2.42,1.92,0,1.2.78,1.78,2.55,2.47,2.16.83,3.27,1.88,3.27,3.76s-1.47,3.68-4.49,3.68a6.73,6.73,0,0,1-3.27-.81Z"/><path d="M286.48,131.37a2.94,2.94,0,0,0,3.15,3.19,6.09,6.09,0,0,0,2.54-.47l.29,1.2a7.61,7.61,0,0,1-3.06.56,4.27,4.27,0,0,1-4.52-4.63c0-2.77,1.63-5,4.31-5,3,0,3.8,2.64,3.8,4.33a6,6,0,0,1-.06.78Zm4.9-1.2a2.38,2.38,0,0,0-2.32-2.71,2.78,2.78,0,0,0-2.57,2.71Z"/><path d="M300.15,135.67l-.13-1.16H300a3.42,3.42,0,0,1-2.81,1.36,2.62,2.62,0,0,1-2.81-2.64c0-2.22,2-3.44,5.53-3.42v-.19a1.89,1.89,0,0,0-2.09-2.12,4.52,4.52,0,0,0-2.39.68l-.38-1.1a5.65,5.65,0,0,1,3-.82c2.81,0,3.49,1.92,3.49,3.76v3.44a13.47,13.47,0,0,0,.15,2.21Zm-.24-4.7c-1.83,0-3.9.29-3.9,2.07a1.48,1.48,0,0,0,1.58,1.6,2.27,2.27,0,0,0,2.22-1.54,1.66,1.66,0,0,0,.1-.53Z"/><path d="M304.22,129.34c0-1.08,0-2-.07-2.87h1.46l.06,1.8h.07a2.77,2.77,0,0,1,2.55-2,1.68,1.68,0,0,1,.47.06v1.58a2.37,2.37,0,0,0-.57-.06A2.34,2.34,0,0,0,306,130a4.56,4.56,0,0,0-.08.78v4.91h-1.65Z"/><path d="M316.8,135.32a6.16,6.16,0,0,1-2.64.53,4.37,4.37,0,0,1-4.58-4.69,4.67,4.67,0,0,1,4.94-4.88,5.56,5.56,0,0,1,2.32.48l-.38,1.29a3.87,3.87,0,0,0-1.94-.44,3.47,3.47,0,0,0-.06,6.92,4.7,4.7,0,0,0,2.05-.46Z"/><path d="M318.76,122.18h1.67v5.73h0a3,3,0,0,1,1.19-1.17,3.43,3.43,0,0,1,1.71-.48c1.24,0,3.21.76,3.21,3.93v5.48h-1.67v-5.29c0-1.48-.55-2.73-2.13-2.73a2.41,2.41,0,0,0-2.24,1.67,2.12,2.12,0,0,0-.11.8v5.55h-1.67Z"/><path d="M257.39,154.51h1.67v5.74h0a3,3,0,0,1,1.19-1.18,3.43,3.43,0,0,1,1.71-.48c1.24,0,3.21.76,3.21,3.94V168h-1.67v-5.28c0-1.49-.55-2.74-2.13-2.74a2.41,2.41,0,0,0-2.24,1.67,2.15,2.15,0,0,0-.11.8V168h-1.67Z"/><path d="M269.87,156.16v2.64h2.39v1.28h-2.39V165c0,1.14.32,1.79,1.25,1.79a4.09,4.09,0,0,0,1-.11l.08,1.25a4.19,4.19,0,0,1-1.48.23,2.35,2.35,0,0,1-1.81-.7,3.46,3.46,0,0,1-.65-2.4v-5h-1.42V158.8h1.42v-2.2Z"/><path d="M276.16,156.16v2.64h2.39v1.28h-2.39V165c0,1.14.32,1.79,1.25,1.79a4.09,4.09,0,0,0,1-.11l.08,1.25a4.22,4.22,0,0,1-1.49.23,2.34,2.34,0,0,1-1.8-.7,3.41,3.41,0,0,1-.65-2.4v-5H273.1V158.8h1.42v-2.2Z"/><path d="M280.43,161.81c0-1.18,0-2.13-.07-3h1.5l.07,1.58h0a3.63,3.63,0,0,1,3.27-1.79c2.22,0,3.89,1.89,3.89,4.68,0,3.3-2,4.94-4.18,4.94a3.22,3.22,0,0,1-2.83-1.45h0v5h-1.66Zm1.66,2.45a3.64,3.64,0,0,0,.07.68,2.59,2.59,0,0,0,2.51,2c1.77,0,2.79-1.45,2.79-3.56,0-1.84-1-3.42-2.73-3.42A2.67,2.67,0,0,0,282.2,162a2.48,2.48,0,0,0-.11.68Z"/><path d="M290.84,160.32a1.14,1.14,0,1,1,2.27,0,1.14,1.14,0,1,1-2.27,0Zm0,6.71a1.14,1.14,0,1,1,2.27,0,1.14,1.14,0,1,1-2.27,0Z"/><path d="M293.77,168.76l5.3-13.78h1.29L295,168.76Z"/><path d="M300.29,168.76l5.3-13.78h1.29l-5.32,13.78Z"/><path d="M311.31,157.21h0l-2.15,1.16-.32-1.28,2.7-1.44h1.42V168h-1.61Z"/><path d="M318.39,166.82a6.64,6.64,0,0,0,1.35-.06,4.7,4.7,0,0,0,2.59-1.19,5.48,5.48,0,0,0,1.63-3.29h-.06a3.71,3.71,0,0,1-6.55-2.45,4.23,4.23,0,0,1,4.22-4.39c2.52,0,4.08,2.05,4.08,5.21a7.79,7.79,0,0,1-2.13,5.79,6.16,6.16,0,0,1-3.59,1.65,7.42,7.42,0,0,1-1.54.1Zm.61-7.1a2.38,2.38,0,0,0,2.38,2.62,2.75,2.75,0,0,0,2.43-1.3,1.13,1.13,0,0,0,.15-.6c0-2.11-.78-3.73-2.53-3.73C320,156.71,319,158,319,159.72Z"/><path d="M327.17,168v-1l1.31-1.27c3.16-3,4.58-4.6,4.6-6.46a2.2,2.2,0,0,0-2.45-2.41,4.23,4.23,0,0,0-2.62,1l-.53-1.18a5.41,5.41,0,0,1,3.49-1.25,3.47,3.47,0,0,1,3.78,3.59c0,2.28-1.65,4.12-4.25,6.63l-1,.91v0h5.55V168Z"/><path d="M337.05,167a1.13,1.13,0,0,1,1.14-1.2,1.2,1.2,0,0,1,0,2.4A1.13,1.13,0,0,1,337.05,167Z"/><path d="M344.48,157.21h0l-2.15,1.16-.32-1.28,2.7-1.44h1.42V168h-1.61Z"/><path d="M357.65,156.83a6.4,6.4,0,0,0-1.26.07,5,5,0,0,0-4.29,4.39h.06a3.76,3.76,0,0,1,6.7,2.57,4.13,4.13,0,0,1-4.1,4.35c-2.64,0-4.37-2.05-4.37-5.27a7.72,7.72,0,0,1,2.09-5.56,6.68,6.68,0,0,1,3.95-1.83,8.72,8.72,0,0,1,1.22-.09Zm-.48,7.12a2.51,2.51,0,0,0-2.54-2.83,2.77,2.77,0,0,0-2.4,1.52,1.47,1.47,0,0,0-.19.74c0,2,1,3.54,2.72,3.54C356.2,166.92,357.17,165.72,357.17,164Z"/><path d="M360.19,164.86a3.52,3.52,0,0,1,2.45-3.3l0-.06a3.07,3.07,0,0,1-1.95-2.77c0-2,1.65-3.29,3.82-3.29,2.39,0,3.59,1.5,3.59,3a3.14,3.14,0,0,1-2,2.89v0a3.44,3.44,0,0,1,2.49,3.2c0,2.14-1.84,3.59-4.2,3.59C361.75,168.21,360.19,166.67,360.19,164.86Zm6.65-.07c0-1.5-1-2.23-2.72-2.7a2.69,2.69,0,0,0-2.22,2.55,2.28,2.28,0,0,0,2.47,2.35A2.23,2.23,0,0,0,366.84,164.79Zm-4.6-6.18c0,1.24.93,1.9,2.36,2.28a2.43,2.43,0,0,0,1.88-2.24,1.92,1.92,0,0,0-2.09-2A2,2,0,0,0,362.24,158.61Z"/><path d="M370.22,167a1.13,1.13,0,0,1,1.14-1.2,1.2,1.2,0,0,1,0,2.4A1.13,1.13,0,0,1,370.22,167Z"/><path d="M382.23,161.69c0,4.2-1.56,6.52-4.29,6.52-2.42,0-4.05-2.26-4.09-6.35s1.79-6.42,4.3-6.42S382.23,157.76,382.23,161.69Zm-6.71.19c0,3.21,1,5,2.51,5,1.71,0,2.53-2,2.53-5.15s-.78-5-2.51-5C376.59,156.73,375.52,158.52,375.52,161.88Z"/><path d="M383.9,167a1.13,1.13,0,0,1,1.14-1.2,1.2,1.2,0,0,1,0,2.4A1.13,1.13,0,0,1,383.9,167Z"/><path d="M391.33,157.21h0l-2.14,1.16-.33-1.28,2.7-1.44H393V168h-1.62Z"/><path d="M705.39,273.9v36.87h-4.76V273.9Z"/><path d="M713.71,274.34a54.27,54.27,0,0,1,9.13-.71c4.71,0,8.15,1.09,10.34,3.06a9.89,9.89,0,0,1,3.23,7.71,10.87,10.87,0,0,1-2.85,7.88c-2.51,2.68-6.62,4.05-11.27,4.05a16.47,16.47,0,0,1-3.82-.33v14.77h-4.76Zm4.76,17.77a15.58,15.58,0,0,0,3.93.39c5.75,0,9.25-2.79,9.25-7.88,0-4.87-3.45-7.22-8.7-7.22a19.87,19.87,0,0,0-4.48.38Z"/><path d="M753.75,305a16.88,16.88,0,0,0,8.53,2.41c4.87,0,7.72-2.57,7.72-6.29,0-3.45-2-5.42-7-7.33-6-2.14-9.74-5.26-9.74-10.45,0-5.75,4.76-10,11.93-10a16.77,16.77,0,0,1,8.15,1.8L772.07,279a14.61,14.61,0,0,0-7-1.75c-5,0-7,3-7,5.52,0,3.45,2.25,5.14,7.34,7.11,6.23,2.41,9.4,5.42,9.4,10.83,0,5.69-4.21,10.62-12.91,10.62-3.55,0-7.44-1-9.41-2.36Z"/><path d="M784.22,298.41c.11,6.51,4.26,9.19,9.08,9.19a17.5,17.5,0,0,0,7.33-1.37l.82,3.44a21.38,21.38,0,0,1-8.81,1.65c-8.15,0-13-5.37-13-13.35s4.71-14.28,12.42-14.28c8.64,0,10.94,7.6,10.94,12.47a19.54,19.54,0,0,1-.16,2.25ZM798.33,295c.06-3.06-1.26-7.82-6.67-7.82-4.87,0-7,4.48-7.39,7.82Z"/><path d="M823.6,310.77l-.38-3.34h-.16a9.86,9.86,0,0,1-8.1,3.94c-5.36,0-8.1-3.77-8.1-7.6,0-6.4,5.69-9.9,15.92-9.85v-.55c0-2.18-.6-6.12-6-6.12a13.14,13.14,0,0,0-6.9,2L808.78,286a16.46,16.46,0,0,1,8.7-2.35c8.09,0,10.06,5.53,10.06,10.83v9.9a37.15,37.15,0,0,0,.44,6.35Zm-.71-13.51c-5.25-.11-11.21.82-11.21,6a4.26,4.26,0,0,0,4.54,4.59,6.58,6.58,0,0,0,6.4-4.43,5.14,5.14,0,0,0,.27-1.53Z"/><path d="M835.31,292.55c0-3.12-.06-5.8-.22-8.26h4.21l.17,5.2h.22c1.2-3.56,4.1-5.8,7.33-5.8a5.58,5.58,0,0,1,1.36.16v4.55a7.13,7.13,0,0,0-1.64-.17c-3.39,0-5.8,2.57-6.45,6.18a13.51,13.51,0,0,0-.22,2.25v14.11h-4.76Z"/><path d="M871.52,309.78a17.66,17.66,0,0,1-7.6,1.54c-8,0-13.18-5.42-13.18-13.52s5.58-14.05,14.22-14.05a16.2,16.2,0,0,1,6.67,1.36l-1.09,3.72a11.25,11.25,0,0,0-5.58-1.26c-6.07,0-9.36,4.49-9.36,10,0,6.13,3.94,9.91,9.19,9.91a13.54,13.54,0,0,0,5.91-1.32Z"/><path d="M877.16,271.93H882v16.52h.11a8.93,8.93,0,0,1,3.45-3.39,9.88,9.88,0,0,1,4.92-1.37c3.56,0,9.25,2.19,9.25,11.32v15.76h-4.82V295.56c0-4.27-1.59-7.88-6.13-7.88a6.91,6.91,0,0,0-6.45,4.82,5.88,5.88,0,0,0-.33,2.3v16h-4.81Z"/><rect width="864.44" height="76.67" x="367.78" y="346.67" class="cls-7" rx="12" ry="12"/><rect width="854.94" height="66.41" x="372.53" y="351.88" class="cls-2" rx="12" ry="12"/><rect width="155.78" height="43.33" x="722.11" y="458.89" class="cls-8" rx="12" ry="12"/><path d="M751.63,488.28a11.16,11.16,0,0,0,5.65,1.59c3.22,0,5.1-1.7,5.1-4.16,0-2.28-1.3-3.58-4.6-4.85-4-1.41-6.44-3.47-6.44-6.91,0-3.8,3.15-6.62,7.89-6.62a11.11,11.11,0,0,1,5.39,1.19l-.87,2.57a9.72,9.72,0,0,0-4.63-1.16c-3.33,0-4.59,2-4.59,3.66,0,2.28,1.48,3.4,4.85,4.7,4.12,1.59,6.22,3.58,6.22,7.17,0,3.76-2.79,7-8.54,7a12.57,12.57,0,0,1-6.22-1.55Z" class="cls-2"/><path d="M771.78,483.94c.08,4.3,2.82,6.07,6,6.07a11.5,11.5,0,0,0,4.85-.9l.54,2.28a14.15,14.15,0,0,1-5.83,1.08c-5.39,0-8.61-3.54-8.61-8.82s3.12-9.45,8.22-9.45c5.71,0,7.23,5,7.23,8.25a11.44,11.44,0,0,1-.11,1.49Zm9.34-2.28c0-2-.84-5.18-4.42-5.18-3.22,0-4.63,3-4.88,5.18Z" class="cls-2"/><path d="M797.83,492.11l-.25-2.2h-.11a6.54,6.54,0,0,1-5.36,2.6,5,5,0,0,1-5.35-5c0-4.23,3.76-6.55,10.53-6.51v-.36c0-1.45-.4-4.05-4-4.05a8.69,8.69,0,0,0-4.56,1.3l-.72-2.1a10.84,10.84,0,0,1,5.75-1.56c5.35,0,6.66,3.66,6.66,7.17v6.55a25.35,25.35,0,0,0,.28,4.19Zm-.47-8.93c-3.47-.08-7.42.54-7.42,3.94a2.82,2.82,0,0,0,3,3,4.36,4.36,0,0,0,4.23-2.93,3.32,3.32,0,0,0,.18-1Z" class="cls-2"/><path d="M805.57,480.06c0-2.06,0-3.83-.14-5.46h2.78l.11,3.44h.15a5.25,5.25,0,0,1,4.84-3.84,3.54,3.54,0,0,1,.91.11v3a4.41,4.41,0,0,0-1.09-.11c-2.24,0-3.83,1.7-4.27,4.08a9.44,9.44,0,0,0-.14,1.49v9.33h-3.15Z" class="cls-2"/><path d="M829.52,491.46a11.65,11.65,0,0,1-5,1c-5.28,0-8.72-3.58-8.72-8.93s3.69-9.3,9.41-9.3a10.71,10.71,0,0,1,4.41.9l-.72,2.46a7.42,7.42,0,0,0-3.69-.83c-4,0-6.19,3-6.19,6.62,0,4.06,2.61,6.55,6.08,6.55a9,9,0,0,0,3.91-.87Z" class="cls-2"/><path d="M833.25,466.43h3.18v10.92h.07a5.92,5.92,0,0,1,2.28-2.24,6.58,6.58,0,0,1,3.26-.91c2.35,0,6.11,1.45,6.11,7.49v10.42H845V482.05c0-2.82-1.05-5.21-4.05-5.21a4.57,4.57,0,0,0-4.27,3.19,3.84,3.84,0,0,0-.22,1.52v10.56h-3.18Z" class="cls-2"/></svg>