<svg xmlns="http://www.w3.org/2000/svg" id="Layer_1" data-name="Layer 1" viewBox="0 0 1600 864"><defs><style>.cls-1{fill:#4b4d52}.cls-2{fill:#18191a}.cls-3{fill:#c09556}.cls-4{fill:#d7ab6d}.cls-5{fill:#381b00}.cls-6{fill:#d7b27d}.cls-7{fill:#cfa569}.cls-8{fill:#e4bd85}.cls-9{fill:#f2f2f2}.cls-10{fill:#d5d5d5}.cls-11{fill:#c4c4c4}.cls-12{fill:#b3b3b3}.cls-13{fill:#bdbdbd}.cls-14{fill:#e6e6e6}.cls-15{fill:#555}</style></defs><title>parallax3</title><path d="M800.26,555.19l-.35,210.68v100.2l-232.45-34.7c-23.39,0-41.73-18.94-39.59-40.94,4.4-45,47.54-162,65.42-181.28,7.39-8.09,32.23-17.4,59.31-26,9.37-3,19-6,28.27-8.74,27.86-8.38,52.61-15.45,57.59-19.17Z" class="cls-1"/><path d="M1032.53,831.37l-232.62,34.7V765.87l.35-210.68h61.81c11.51,8.65,127.38,34.7,145.18,54s60.48,136.27,64.88,181.28C1074.27,812.43,1055.93,831.37,1032.53,831.37Z" class="cls-2"/><path d="M800.31,522.64h57.32s-7.13,23.16,4.45,31.19c0,0-25.54,52.56-61.78,52.56V522.64Z" class="cls-3"/><path d="M800.31,606.39c-36.23,0-61.78-52.56-61.78-52.56,11.58-8,4.46-31.19,4.46-31.19h57.32Z" class="cls-4"/><path d="M695.73,353.11,707,446.23s-6.06-111,24.24-116.4c0,0,130.71-16.3,148.89,0S894,438.47,894,438.47L913,343l-85.7-48.11-112.54,14Z" class="cls-5"/><path d="M719.38,416.29l-10.91,25.62a5.32,5.32,0,0,1-1.55-.44c-11.78-3.61-12.81-24.84-14.78-32.31-.18-.53-.27-1-.43-1.64-1.9-7.82-2.32-19.43,9.45-20.8a8,8,0,0,1,5.75,1.72c4.9,3.61,8.35,12.38,10.32,19.08A88.76,88.76,0,0,1,719.38,416.29Z" class="cls-6"/><path d="M908.91,407.52c-.17.6-.26,1.11-.43,1.64-2,7.47-3,28.7-14.78,32.31a5.32,5.32,0,0,1-1.55.44l-10.92-25.62s.7-3.87,2.16-8.77c2-6.7,5.41-15.47,10.31-19.08a8,8,0,0,1,5.75-1.72C911.23,388.09,910.8,399.7,908.91,407.52Z" class="cls-7"/><path d="M800.26,306.62V555s-34.37,3.09-59.65-20.8-33.69-35.93-33.69-60.42V349.42a13.7,13.7,0,0,1-.09-3.44C707.52,335.84,716.8,306.62,800.26,306.62Z" class="cls-8"/><path d="M893.7,349.42V473.8c0,24.49-8.42,36.52-33.7,60.42S800.27,555,800.27,555V306.62c83.54,0,92.83,29.22,93.51,39.36A14.08,14.08,0,0,1,893.7,349.42Z" class="cls-4"/><path d="M702.69,385.41s4.19,15.17,4.19,25.18l1.28-25.18-1.28-18.11Z" class="cls-5"/><path d="M898.28,385.41s-4.19,15.17-4.19,25.18l-1.28-25.18,1.28-18.11Z" class="cls-5"/><path d="M706.77,382.68s44.13-12.7,62.65-10.57a75.62,75.62,0,0,1,31,10.57v41.15s-16.74,5.49-26.49,7.05-37.76-7.44-33.1-5.74c0,0-22.07-7.81-34.08-4.95V382.68Z" class="cls-1"/><path d="M893.89,382.68s-44.13-12.7-62.65-10.57a75.62,75.62,0,0,0-31,10.57v41.15s16.73,5.49,26.5,7.05,37.74-7.44,33.09-5.74c0,0,22.07-7.81,34.08-4.95Z" class="cls-2"/><path d="M727.78,400.43c-2.12,0,14.82-18.35,36-6.35S778.59,404,778.59,404s-26.82,16.23-38.82,6.35Z" class="cls-9"/><path d="M872.83,400.43c2.12,0-14.81-18.35-36-6.35S822,404,822,404s26.81,16.23,38.81,6.35Z" class="cls-10"/><path d="M800,232.17c60.67,0,109.91,36,109.91,80.45a55.29,55.29,0,0,1-.59,8.08H800.09Z" class="cls-2"/><path d="M800.09,320.7H690.83a53.93,53.93,0,0,1-.59-8.08c0-44.41,49.24-80.45,109.8-80.45Z" class="cls-1"/><rect width="112.67" height="34.79" x="687.42" y="320.72" class="cls-2"/><rect width="112.67" height="34.79" x="800.09" y="320.72" class="cls-1"/><path d="M800,597H952.26c19.76,0,35.93,19.77,35.93,43.93l.28,164.27a36.09,36.09,0,0,1-36,36H800Z" class="cls-11"/><path d="M800,841.17H647.52a36.09,36.09,0,0,1-36-36l.28-164.27c0-24.17,16.17-43.94,35.93-43.94H800Z" class="cls-9"/><path d="M800.44,840.66H977.85a12.75,12.75,0,0,1,12.71,12.71h0a12.75,12.75,0,0,1-12.71,12.7H800.44Z" class="cls-12"/><path d="M800.44,866.07H623a12.75,12.75,0,0,1-12.71-12.7h0A12.75,12.75,0,0,1,623,840.66H800.44Z" class="cls-13"/><path d="M800,680a39.09,39.09,0,1,1,0,78.18Z" class="cls-14"/><path d="M800,758.16A39.09,39.09,0,0,1,800,680Z" class="cls-11"/><circle cx="800.45" cy="718.71" r="39" class="cls-15"/><path d="M774.73,699h7.44V736.8h-7.44Zm9.4,20.65a16.82,16.82,0,0,1,.65-1.8,7.22,7.22,0,0,1,1.07-1.73,5.59,5.59,0,0,1,1.48-1.3,3.92,3.92,0,0,1,2-.52h9.21V699h7.28V736.8h-7.28V719.64Z" class="cls-9"/><path d="M818.26,709.91a4.58,4.58,0,0,1,.91,1.43,9.21,9.21,0,0,1,.7,2.42L820,715l.52-1.25a8.27,8.27,0,0,1,2.73-3.25,5.92,5.92,0,0,1,3.35-1.14,10.61,10.61,0,0,1,3.38.65l-.83,5.85a13.35,13.35,0,0,0-1.74-.42,8.22,8.22,0,0,0-1.3-.1,4.24,4.24,0,0,0-2.4.65,5.78,5.78,0,0,0-1.76,1.89,9.24,9.24,0,0,0-1.12,2.81,15.29,15.29,0,0,0-.39,3.56V736.8h-6.81V716.46a29.12,29.12,0,0,0-.19-3.09,24,24,0,0,0-.65-3.46Z" class="cls-9"/></svg>